<svg xmlns="http://www.w3.org/2000/svg" version="1.1" xmlns:xlink="http://www.w3.org/1999/xlink" width="200" height="200"><svg xmlns="http://www.w3.org/2000/svg" version="1.1" xmlns:xlink="http://www.w3.org/1999/xlink" viewBox="0 0 200 200"><rect width="200" height="200" fill="url('#gradient')"></rect><defs><linearGradient id="SvgjsLinearGradient1001" gradientTransform="rotate(45 0.5 0.5)"><stop offset="0%" stop-color="#439852"></stop><stop offset="100%" stop-color="#161e27"></stop></linearGradient></defs><g><g fill="#fa9e10" transform="matrix(6.208150892556416,0,0,6.208150892556416,3.337801267218211,144.13932854143928)" stroke="#fdf3ad" stroke-width="0.2"><path d="M1.07-14.22L5.58-14.22L8.75-4.33L11.91-14.22L16.43-14.22L16.43 0L12.99 0L12.99-3.32L13.32-10.12L9.88 0L7.62 0L4.17-10.13L4.50-3.32L4.50 0L1.07 0L1.07-14.22ZM26.40 0L23.89-5.02L22.03-5.02L22.03 0L18.60 0L18.60-14.22L24.20-14.22Q26.73-14.22 28.15-13.10Q29.58-11.97 29.58-9.92L29.58-9.92Q29.58-8.44 28.98-7.46Q28.38-6.48 27.10-5.88L27.10-5.88L30.07-0.15L30.07 0L26.40 0ZM22.03-11.57L22.03-7.67L24.20-7.67Q25.18-7.67 25.67-8.18Q26.16-8.69 26.16-9.61Q26.16-10.53 25.66-11.05Q25.17-11.57 24.20-11.57L24.20-11.57L22.03-11.57Z"></path></g></g></svg><style>@media (prefers-color-scheme: light) { :root { filter: none; } }
@media (prefers-color-scheme: dark) { :root { filter: none; } }
</style></svg>
